<svg width="124" height="117" viewBox="3.96802 4.15454 115.873985 105.64146" fill="none" xmlns="http://www.w3.org/2000/svg">
<path fill-rule="evenodd" clip-rule="evenodd" d="M19.1883 103.042L19.0623 104.718H16.0863V88.0301H19.229V94.4062C19.5245 93.9546 19.8777 93.5775 20.2884 93.275C20.9789 92.7664 21.824 92.5121 22.824 92.5121C23.9192 92.5121 24.8675 92.7664 25.669 93.275C26.4705 93.7836 27.0935 94.5027 27.538 95.4325C27.9824 96.3622 28.2046 97.4708 28.2046 98.7582C28.2046 100.03 27.9824 101.134 27.538 102.072C27.0935 103.01 26.4705 103.733 25.669 104.241C24.8675 104.75 23.9192 105.004 22.824 105.004C21.824 105.004 20.9789 104.75 20.2884 104.241C19.8587 103.925 19.4919 103.525 19.1883 103.042ZM19.229 98.7582C19.229 99.4098 19.348 99.9899 19.5861 100.498C19.8242 101.007 20.1535 101.404 20.5741 101.69C20.9947 101.977 21.4748 102.12 22.0145 102.12C22.5859 102.12 23.0898 101.977 23.5263 101.69C23.9628 101.404 24.308 101.007 24.562 100.498C24.8159 99.9899 24.9429 99.4098 24.9429 98.7582C24.9429 98.1066 24.8199 97.5265 24.5739 97.0178C24.3278 96.5093 23.9866 96.1159 23.5501 95.8378C23.1136 95.5597 22.6097 95.4206 22.0383 95.4206C21.4986 95.4206 21.0146 95.5636 20.586 95.8497C20.1575 96.1358 19.8242 96.5291 19.5861 97.0298C19.348 97.5304 19.229 98.1066 19.229 98.7582ZM60.7264 98.4721V104.718H57.5837V92.7981H60.5359L60.6754 94.4047C60.9864 93.9193 61.3604 93.5229 61.7977 93.2153C62.4644 92.7465 63.25 92.5121 64.1547 92.5121C65.599 92.5121 66.7061 92.9531 67.476 93.8352C67.774 94.1768 68.0131 94.5891 68.1934 95.0724C68.5605 94.2728 69.0594 93.6538 69.6901 93.2153C70.3646 92.7465 71.1543 92.5121 72.059 92.5121C73.5033 92.5121 74.6065 92.9531 75.3683 93.8352C76.1302 94.7173 76.5111 96.0722 76.5111 97.8999V104.718H73.3684V98.6151C73.3684 97.8046 73.2732 97.1768 73.0827 96.7318C72.8923 96.2868 72.6343 95.9649 72.309 95.7662C71.9836 95.5676 71.5908 95.4682 71.1305 95.4682C70.321 95.4524 69.698 95.6987 69.2616 96.2073C68.825 96.7159 68.6068 97.4708 68.6068 98.4721V104.718H65.4642V98.6151C65.4642 97.8046 65.3729 97.1768 65.1904 96.7318C65.0078 96.2868 64.7499 95.9649 64.4166 95.7662C64.0833 95.5676 63.6944 95.4682 63.25 95.4682C62.4406 95.4524 61.8176 95.6987 61.3811 96.2073C60.9446 96.7159 60.7264 97.4708 60.7264 98.4721ZM102.367 98.4482V104.718H99.224V92.7981H102.367V94.971C102.838 94.2695 103.421 93.736 104.117 93.3703C104.902 92.9571 105.724 92.7505 106.581 92.7505V95.802C105.851 95.802 105.164 95.8894 104.521 96.0642C103.878 96.2391 103.359 96.5252 102.962 96.9225C102.565 97.3198 102.367 97.8284 102.367 98.4482ZM116.699 102.403C116.365 102.925 115.952 103.351 115.461 103.681C114.763 104.15 113.937 104.384 112.985 104.384C111.89 104.384 110.941 104.146 110.14 103.669C109.338 103.192 108.715 102.525 108.271 101.667C107.827 100.808 107.604 99.7913 107.604 98.6151C107.604 97.3754 107.827 96.2987 108.271 95.3848C108.715 94.4709 109.338 93.7637 110.14 93.263C110.941 92.7624 111.89 92.5121 112.985 92.5121C113.937 92.5121 114.763 92.7624 115.461 93.263C115.952 93.6151 116.365 94.0714 116.699 94.6319V92.7981H119.842V103.431C119.842 104.766 119.588 105.914 119.08 106.876C118.572 107.837 117.854 108.564 116.925 109.057C115.997 109.55 114.89 109.796 113.604 109.796C112.699 109.796 111.898 109.733 111.199 109.605C110.501 109.478 109.914 109.311 109.438 109.105C108.961 108.898 108.573 108.692 108.271 108.485L109.509 105.958C109.731 106.085 110.025 106.232 110.39 106.399C110.755 106.566 111.191 106.709 111.699 106.828C112.207 106.947 112.795 107.007 113.461 107.007C114.096 107.007 114.656 106.884 115.14 106.637C115.624 106.391 116.005 106.01 116.282 105.493C116.56 104.976 116.699 104.321 116.699 103.526V102.403ZM113.89 101.738C114.429 101.738 114.902 101.599 115.306 101.321C115.711 101.043 116.024 100.661 116.247 100.177C116.469 99.6919 116.58 99.1396 116.58 98.5198C116.58 97.8841 116.465 97.3278 116.235 96.851C116.005 96.3742 115.687 96.0007 115.283 95.7305C114.878 95.4603 114.406 95.3252 113.866 95.3252C113.31 95.3252 112.818 95.4603 112.39 95.7305C111.961 96.0007 111.628 96.3742 111.39 96.851C111.152 97.3278 111.025 97.8841 111.009 98.5198C111.025 99.1396 111.152 99.6919 111.39 100.177C111.628 100.661 111.965 101.043 112.402 101.321C112.838 101.599 113.334 101.738 113.89 101.738ZM3.96802 104.718L3.99183 88.0301H7.13449L7.11068 104.718H3.96802ZM10.0391 104.718V92.7981H13.1817V104.718H10.0391ZM11.6104 90.8671C11.1342 90.8671 10.7136 90.6883 10.3486 90.3307C9.98348 89.9731 9.80099 89.548 9.80099 89.0553C9.80099 88.5626 9.98348 88.1374 10.3486 87.7798C10.7136 87.4222 11.1342 87.2434 11.6104 87.2434C12.1024 87.2434 12.527 87.4222 12.8841 87.7798C13.2412 88.1374 13.4198 88.5626 13.4198 89.0553C13.4198 89.548 13.2412 89.9731 12.8841 90.3307C12.527 90.6883 12.1024 90.8671 11.6104 90.8671ZM36.0136 105.004C34.7756 105.004 33.6725 104.738 32.7043 104.206C31.7361 103.673 30.9822 102.934 30.4426 101.988C29.9029 101.043 29.6331 99.9661 29.6331 98.7582C29.6331 97.5344 29.9029 96.4537 30.4426 95.5159C30.9822 94.5782 31.7282 93.8432 32.6805 93.3107C33.6328 92.7783 34.728 92.5121 35.966 92.5121C37.1564 92.5121 38.2436 92.8061 39.2277 93.3942C40.2118 93.9822 40.926 94.8325 41.3704 95.945L38.4182 96.994C38.196 96.5331 37.8508 96.1636 37.3826 95.8854C36.9144 95.6073 36.3946 95.4682 35.8232 95.4682C35.2359 95.4682 34.72 95.6073 34.2757 95.8854C33.8312 96.1636 33.482 96.549 33.2281 97.0417C32.9741 97.5344 32.8472 98.1066 32.8472 98.7582C32.8472 99.4098 32.9741 99.978 33.2281 100.463C33.482 100.948 33.8391 101.333 34.2995 101.619C34.7597 101.905 35.2835 102.048 35.8708 102.048C36.4422 102.048 36.962 101.897 37.4302 101.595C37.8984 101.293 38.2436 100.896 38.4659 100.403L41.4419 101.452C40.9815 102.581 40.2634 103.455 39.2872 104.074C38.3111 104.694 37.2199 105.004 36.0136 105.004ZM49.1081 105.004C47.8859 105.004 46.8026 104.738 45.8583 104.206C44.9139 103.673 44.1718 102.938 43.6322 102C43.0925 101.063 42.8227 99.982 42.8227 98.7582C42.8227 97.5344 43.0886 96.4537 43.6203 95.5159C44.152 94.5782 44.89 93.8432 45.8345 93.3107C46.7788 92.7783 47.8541 92.5121 49.0604 92.5121C50.2985 92.5121 51.3857 92.7783 52.3221 93.3107C53.2586 93.8432 53.9926 94.5782 54.5244 95.5159C55.0561 96.4537 55.322 97.5344 55.322 98.7582C55.322 99.982 55.0561 101.063 54.5244 102C53.9926 102.938 53.2626 103.673 52.334 104.206C51.4055 104.738 50.3302 105.004 49.1081 105.004ZM49.1081 101.929C49.6636 101.929 50.1516 101.794 50.5723 101.524C50.9928 101.253 51.3222 100.88 51.5603 100.403C51.7984 99.9263 51.9174 99.378 51.9174 98.7582C51.9174 98.1383 51.7944 97.59 51.5484 97.1132C51.3023 96.6364 50.9651 96.2629 50.5365 95.9927C50.108 95.7225 49.6159 95.5874 49.0604 95.5874C48.5208 95.5874 48.0367 95.7225 47.6082 95.9927C47.1796 96.2629 46.8463 96.6364 46.6082 97.1132C46.3701 97.59 46.2511 98.1383 46.2511 98.7582C46.2511 99.378 46.3701 99.9263 46.6082 100.403C46.8463 100.88 47.1835 101.253 47.6201 101.524C48.0565 101.794 48.5525 101.929 49.1081 101.929ZM80.6061 105.076C80.0823 105.076 79.6339 104.885 79.2609 104.504C78.8879 104.122 78.7014 103.669 78.7014 103.145C78.7014 102.636 78.8879 102.191 79.2609 101.81C79.6339 101.428 80.0823 101.238 80.6061 101.238C81.1299 101.238 81.5782 101.428 81.9512 101.81C82.3242 102.191 82.5107 102.636 82.5107 103.145C82.5107 103.669 82.3242 104.122 81.9512 104.504C81.5782 104.885 81.1299 105.076 80.6061 105.076ZM90.7483 105.004C89.5261 105.004 88.4429 104.738 87.4985 104.206C86.5541 103.673 85.8121 102.938 85.2725 102C84.7328 101.063 84.463 99.982 84.463 98.7582C84.463 97.5344 84.7288 96.4537 85.2606 95.5159C85.7923 94.5782 86.5303 93.8432 87.4747 93.3107C88.4191 92.7783 89.4944 92.5121 90.7007 92.5121C91.9387 92.5121 93.0259 92.7783 93.9624 93.3107C94.8988 93.8432 95.6329 94.5782 96.1646 95.5159C96.6963 96.4537 96.9622 97.5344 96.9622 98.7582C96.9622 99.982 96.6963 101.063 96.1646 102C95.6329 102.938 94.9028 103.673 93.9743 104.206C93.0458 104.738 91.9704 105.004 90.7483 105.004ZM90.7483 101.929C91.3038 101.929 91.7919 101.794 92.2125 101.524C92.6331 101.253 92.9625 100.88 93.2005 100.403C93.4386 99.9263 93.5577 99.378 93.5577 98.7582C93.5577 98.1383 93.4346 97.59 93.1886 97.1132C92.9426 96.6364 92.6053 96.2629 92.1768 95.9927C91.7483 95.7225 91.2562 95.5874 90.7007 95.5874C90.161 95.5874 89.677 95.7225 89.2484 95.9927C88.8199 96.2629 88.4866 96.6364 88.2485 97.1132C88.0104 97.59 87.8913 98.1383 87.8913 98.7582C87.8913 99.378 88.0104 99.9263 88.2485 100.403C88.4866 100.88 88.8238 101.253 89.2603 101.524C89.6968 101.794 90.1928 101.929 90.7483 101.929Z" fill="#1F1C1C"/>
<path fill-rule="evenodd" clip-rule="evenodd" d="M55.0346 21.802C55.2059 17.1902 55.7761 14.2217 57.3462 11.3994C58.992 8.44097 61.7188 5.53027 65.2348 4.98211C66.2076 4.8304 67.6337 4.90702 68.5891 5.20318C69.0466 5.34495 69.4948 5.51548 69.9366 5.70146C70.1631 5.79678 70.4219 5.77891 70.633 5.65329C72.2025 4.71915 73.7188 4.15454 74.4634 4.15454C74.5587 4.15454 74.6446 4.21158 74.6811 4.2991C74.7176 4.38661 74.6974 4.48738 74.63 4.55436C74.5455 4.63839 74.3887 4.78862 74.1857 4.9901C73.5986 5.57264 72.673 6.53826 71.9947 7.57488C71.537 8.2931 71.4233 9.17617 71.6843 9.98593C71.9454 10.7959 72.5546 11.4491 73.3473 11.7689C75.6601 12.6937 78.5819 12.0723 78.8856 12.0682C78.9627 12.0672 79.0355 12.1038 79.0804 12.1662C79.1253 12.2286 79.1366 12.3089 79.1107 12.3811C79.0918 12.4337 79.0598 12.4806 79.0183 12.5169C77.3482 13.9863 75.3529 14.6882 73.4648 14.9745C72.955 15.0518 72.453 15.0988 71.9676 15.1224C71.9591 15.1228 71.9505 15.1228 71.942 15.1223C69.1255 14.9543 67.1059 12.3695 66.5359 11.5448C66.5246 11.5284 66.5138 11.5128 66.5036 11.4979C66.3675 11.3013 66.3814 11.038 66.5373 10.8576C67.0334 10.278 67.0823 9.57517 66.8446 8.98836C66.5515 8.26452 65.8264 7.71275 64.961 7.78405L64.9603 7.78411C64.2687 7.8389 63.6545 8.10074 63.1217 8.4718C61.2908 9.75653 60.6997 12.1905 61.7394 14.1643C61.7858 14.2522 61.8337 14.3408 61.8827 14.4298L61.883 14.4302C62.248 15.0953 62.1088 15.9221 61.546 16.4327C59.6876 18.1194 55.4289 21.9836 55.4289 21.9836L55.0197 22.3294C55.0197 22.3294 55.0311 21.8963 55.0346 21.802Z" fill="#1F1C1C"/>
<path fill-rule="evenodd" clip-rule="evenodd" d="M55.0195 22.3308C55.0195 22.3308 55.589 30.4949 50.0402 36.0111C47.2115 38.8233 46.3483 42.0701 45.7498 44.7355C45.5443 45.6507 45.3454 46.4741 45.0676 47.1426C44.7726 47.8525 44.3855 48.392 43.8271 48.7043C40.1901 50.7381 37.2064 52.0274 33.1489 53.6943C31.7453 54.271 29.5959 55.0928 27.6825 55.3312C27.6775 55.3318 27.6724 55.3323 27.6673 55.3326C25.0397 55.4799 23.4474 55.1705 22.5743 54.6868C21.9895 54.3629 21.7047 53.9552 21.6237 53.5433C21.5033 52.9312 21.8396 52.2816 22.4197 51.8181L55.0195 22.3308Z" fill="#1F1C1C"/>
<path fill-rule="evenodd" clip-rule="evenodd" d="M70.0032 19.4906C71.1895 19.4055 72.4063 20.4918 73.1003 21.2349C76.5029 24.8785 77.4532 28.5974 77.6552 33.603C77.7962 37.0966 77.4147 40.6004 77.5991 44.092C77.8306 48.4754 78.5846 52.8186 78.9012 57.1968C79.376 63.7627 80.3856 72.5941 73.3496 76.2575C72.3972 76.7533 71.3631 77.1034 70.3167 77.35C69.2464 77.6023 68.1402 77.7228 67.0402 77.7444C65.9335 77.7661 64.8195 77.6739 63.7301 77.4793C56.7344 76.2292 53.3071 70.8426 51.9241 64.3332C49.5471 53.1452 52.5798 41.1603 59.3911 32.0405C62.3133 28.1278 65.2773 24.2453 68.2981 20.4071C68.7193 19.872 69.3168 19.5398 70.0032 19.4906Z" fill="#1F1C1C"/>
<path fill-rule="evenodd" clip-rule="evenodd" d="M91.5919 59.5702C91.4319 59.8239 91.1465 59.9719 90.8456 59.9572C80.587 59.4057 79.9347 35.2692 84.0811 38.5385C84.3608 38.7591 84.5851 39.0414 84.7361 39.363C86.8053 43.7302 93.3855 56.4612 91.5919 59.5702Z" fill="#CD3434"/>
</svg>
